<svg xmlns:xlink="http://www.w3.org/1999/xlink" xmlns="http://www.w3.org/2000/svg" class="noFill_17L svgIcon_2c-" viewBox="0 0 32 32" width="32"  height="32" ><g stroke="none" stroke-width="1" fill="none" fill-rule="evenodd"><path d="M16,32 C7.163444,32 0,24.836556 0,16 C0,7.163444 7.163444,0 16,0 C24.836556,0 32,7.163444 32,16 C32,24.836556 24.836556,32 16,32 Z M13.6383065,25 L16.9133212,25 L16.9133212,16.0044 L19.3701815,16.0044 L19.8560792,13.1936 L16.9133212,13.1936 L16.9133212,11.1568001 C16.9133212,10.5002 17.3378823,9.81079996 17.944655,9.81079996 L19.6171262,9.81079996 L19.6171262,7 L17.567445,7 L17.567445,7.0126 C14.3603601,7.129 13.7014413,8.98640001 13.6443004,10.9374 L13.6383065,10.9374 L13.6383065,13.1936 L12,13.1936 L12,16.0044 L13.6383065,16.0044 L13.6383065,25 Z" class="outline_1L9" fill-rule="nonzero" fill-opacity="0" fill="#000000"></path><path d="M13.6383065,25 L16.9133212,25 L16.9133212,16.0044 L19.3701815,16.0044 L19.8560792,13.1936 L16.9133212,13.1936 L16.9133212,11.1568001 C16.9133212,10.5002 17.3378823,9.81079996 17.944655,9.81079996 L19.6171262,9.81079996 L19.6171262,7 L17.567445,7 L17.567445,7.0126 C14.3603601,7.129 13.7014413,8.98640001 13.6443004,10.9374 L13.6383065,10.9374 L13.6383065,13.1936 L12,13.1936 L12,16.0044 L13.6383065,16.0044 L13.6383065,25 Z" class="logo_3FN" fill-rule="nonzero" fill="#32BBCB"></path><path d="M16,31 C24.2842712,31 31,24.2842712 31,16 C31,7.71572875 24.2842712,1 16,1 C7.71572875,1 1,7.71572875 1,16 C1,24.2842712 7.71572875,31 16,31 Z M16,32 C7.163444,32 0,24.836556 0,16 C0,7.163444 7.163444,0 16,0 C24.836556,0 32,7.163444 32,16 C32,24.836556 24.836556,32 16,32 Z" class="border_2C-" fill-rule="nonzero" fill="#32BBCB"></path></g></svg>