<svg xmlns="http://www.w3.org/2000/svg" xmlns:xlink="http://www.w3.org/1999/xlink" version="1.1" x="0px" y="0px" viewBox="0 0 100 100" enable-background="new 0 0 100 100" xml:space="preserve" style="max-width:100%" height="70" width="70" ><g style="" fill="#B940AA"><path fill="#B940AA" d="M1355.15,100.38c0-5.709-4.645-10.354-10.354-10.354s-10.354,4.645-10.354,10.354   c0,5.71,4.645,10.355,10.354,10.355S1355.15,106.09,1355.15,100.38z M1344.797,109.535c-5.049,0-9.154-4.106-9.154-9.155   c0-5.047,4.105-9.153,9.154-9.153c5.047,0,9.152,4.106,9.152,9.153C1353.949,105.429,1349.844,109.535,1344.797,109.535z" style=""></path><path fill="#B940AA" d="M1423.516,129.803c-0.004-0.005-0.01-0.013-0.014-0.019c-0.002-0.003-0.002-0.005-0.002-0.008   c-8.053-12.019-18.357-22.005-30.625-29.685c0,0,0-0.001-0.002-0.001c-6.977-5.015-15.174-7.768-23.738-8.016   c0.412-10.617-0.336-21.297-2.24-31.753c-0.227-1.24-0.922-2.318-1.959-3.035c-1.037-0.716-2.287-0.984-3.531-0.761   c-1.238,0.227-2.316,0.921-3.035,1.957c-0.717,1.037-0.986,2.291-0.762,3.531c1.891,10.366,2.57,20.956,2.021,31.478   c0,0.001,0,0.001,0,0.002l-1.086,15.755l0,0c-0.896,10.488-3.023,20.882-6.316,30.893c-0.812,2.472,0.539,5.144,3.01,5.957   c0.488,0.162,0.984,0.238,1.473,0.238c1.98,0,3.832-1.262,4.484-3.245c3.262-9.909,5.447-20.194,6.512-30.575   c4.695-0.11,9.307,1.366,13.029,4.238c8.537,7.494,15.441,16.445,20.523,26.602c0.65,1.297,1.766,2.263,3.141,2.721   c0.562,0.188,1.143,0.28,1.719,0.28c0.832,0,1.66-0.193,2.426-0.576c1.297-0.648,2.264-1.764,2.723-3.14   c0.457-1.376,0.352-2.849-0.297-4.145c-3.877-7.746-8.762-14.953-14.525-21.421c-0.131-0.149-0.137-0.368-0.012-0.521   c0.143-0.173,0.398-0.198,0.566-0.057c0.002,0.001,0.002,0.001,0.004,0.003c6.754,5.529,12.629,12.02,17.457,19.286   c1.043,1.571,2.77,2.424,4.529,2.424c1.031,0,2.074-0.293,2.994-0.906C1424.475,135.649,1425.156,132.272,1423.516,129.803z    M1421.32,136.306c-1.945,1.29-4.574,0.758-5.863-1.182c-4.893-7.367-10.846-13.945-17.695-19.551c0-0.001,0-0.002-0.002-0.003   c-0.68-0.56-1.693-0.461-2.256,0.224c-0.502,0.615-0.482,1.489,0.045,2.081c5.691,6.388,10.518,13.507,14.346,21.158   c0.506,1.011,0.588,2.157,0.232,3.229c-0.357,1.072-1.109,1.94-2.121,2.446c-1.01,0.505-2.156,0.589-3.229,0.23   c-1.07-0.356-1.941-1.108-2.445-2.119c-5.156-10.302-12.16-19.379-20.818-26.979c-0.004-0.005-0.012-0.006-0.018-0.011   c-0.004-0.003-0.006-0.009-0.012-0.013c-4.086-3.159-9.17-4.76-14.346-4.496c-0.041,0.002-0.076,0.019-0.115,0.029   c-0.014,0.003-0.027,0.006-0.041,0.01c-0.064,0.021-0.121,0.052-0.174,0.093c-0.008,0.006-0.018,0.013-0.025,0.021   c-0.043,0.036-0.078,0.078-0.109,0.126c-0.016,0.022-0.029,0.044-0.043,0.068c-0.018,0.04-0.029,0.079-0.037,0.123   c-0.006,0.024-0.021,0.044-0.023,0.07c-1.035,10.477-3.227,20.858-6.516,30.855c-0.607,1.845-2.602,2.848-4.443,2.243   c-1.844-0.607-2.85-2.601-2.246-4.443c3.326-10.103,5.469-20.592,6.373-31.175c0-0.001,0-0.004,0-0.005s0.002-0.004,0.002-0.006   l1.092-15.834c0.002-0.008-0.004-0.015-0.004-0.021c0.549-10.589-0.137-21.246-2.039-31.677c-0.168-0.925,0.033-1.858,0.568-2.632   s1.338-1.292,2.264-1.459c0.924-0.175,1.857,0.032,2.633,0.565c0.771,0.536,1.291,1.34,1.459,2.265   c1.926,10.562,2.668,21.355,2.205,32.08c0,0.003,0,0.006,0,0.009s0,0.005,0,0.007c0,0.032,0.012,0.059,0.016,0.09   c0.008,0.047,0.01,0.095,0.025,0.138c0.014,0.032,0.035,0.057,0.053,0.085c0.023,0.037,0.041,0.077,0.07,0.108   c0.025,0.027,0.059,0.044,0.09,0.065c0.033,0.023,0.061,0.051,0.096,0.067s0.074,0.019,0.111,0.028   c0.037,0.009,0.072,0.025,0.113,0.027c0.006,0,0.01,0,0.016,0c8.541,0.128,16.725,2.833,23.664,7.822   c0.006,0.004,0.012,0.002,0.016,0.005c0.008,0.005,0.012,0.012,0.018,0.017c12.137,7.592,22.328,17.465,30.293,29.351   c0.002,0.001,0.002,0.004,0.002,0.005C1423.791,132.386,1423.262,135.015,1421.32,136.306z" style=""></path></g><path fill="#B940AA" d="M91.311,88.538c-0.012-0.029-0.014-0.061-0.025-0.09c-5.352-13.65-13.828-26.175-24.514-36.219  c0-0.002-0.002-0.002-0.002-0.003c-0.002-0.001-0.002-0.002-0.004-0.003c-6.273-5.841-14.301-9.66-22.778-10.872  c1.245-10.237,1.422-20.615,0.497-30.881c-0.143-1.575-0.89-3-2.104-4.013c-1.214-1.014-2.754-1.493-4.325-1.352  c-3.127,0.284-5.445,2.967-5.358,6.062c-0.014,0.119-0.016,0.241-0.004,0.365c0.937,10.392,0.661,20.903-0.821,31.242l-0.659,4.111  c-0.647-5.763-5.545-10.257-11.476-10.257c-6.371,0-11.554,5.183-11.554,11.553s5.183,11.554,11.554,11.554  c4.658,0,8.671-2.777,10.497-6.757l-0.858,5.35c0,0-0.001,0-0.001,0.001c-1.826,10.283-4.854,20.357-9,29.942  c-0.021,0.049-0.031,0.101-0.048,0.15c-0.567,1.413-0.585,2.959-0.022,4.379c0.582,1.47,1.701,2.625,3.153,3.253  c0.662,0.286,1.377,0.428,2.097,0.46c1.045,0.635,2.241,0.98,3.458,0.98c1.202,0,2.42-0.327,3.512-1.012  c0.001,0,0.002,0,0.004-0.001c11.968-7.517,22.348-17.672,30.153-29.462c6.973,7.732,12.451,16.549,16.26,26.267  c0.002,0.003,0.004,0.005,0.006,0.008c0.646,1.646,1.893,2.94,3.512,3.648c0.852,0.371,1.75,0.558,2.652,0.558  c0.816,0,1.637-0.153,2.422-0.462c1.648-0.646,2.945-1.895,3.654-3.518C91.885,91.929,91.92,90.163,91.311,88.538z M19.738,56.136  c-4.386,0-7.953-3.568-7.953-7.953s3.567-7.952,7.953-7.952c4.385,0,7.952,3.567,7.952,7.952S24.123,56.136,19.738,56.136z   M87.889,92.081c-0.324,0.74-0.916,1.312-1.67,1.606c-0.756,0.294-1.578,0.279-2.318-0.043c-0.74-0.325-1.311-0.917-1.607-1.67  c0-0.001,0-0.001,0-0.003c-4.26-10.866-10.5-20.669-18.545-29.135c-0.006-0.006-0.014-0.008-0.02-0.014  c-0.098-0.1-0.203-0.193-0.328-0.271c-0.062-0.038-0.127-0.065-0.193-0.096c-0.025-0.013-0.051-0.027-0.076-0.039  c-0.191-0.078-0.391-0.119-0.59-0.13c-0.029-0.001-0.059-0.005-0.088-0.005c-0.201-0.001-0.4,0.034-0.59,0.1  c-0.029,0.01-0.057,0.017-0.084,0.027c-0.199,0.08-0.381,0.195-0.545,0.344c-0.008,0.009-0.021,0.01-0.029,0.02  c-0.006,0.005-0.008,0.013-0.014,0.018c-0.1,0.099-0.193,0.205-0.271,0.329c-7.648,12.183-18.127,22.665-30.306,30.314  c-0.001,0-0.001,0-0.001,0.001c-1.417,0.886-3.288,0.459-4.176-0.955c-0.43-0.686-0.567-1.496-0.388-2.286  c0.181-0.789,0.656-1.46,1.342-1.891c2.518-1.581,4.937-3.288,7.27-5.094c0.044-0.029,0.081-0.065,0.122-0.098  c6.14-4.771,11.633-10.297,16.375-16.525c0.014-0.019,0.021-0.04,0.035-0.059c0.01-0.013,0.023-0.022,0.033-0.036  c0.021-0.034,0.035-0.072,0.055-0.107c0.033-0.055,0.062-0.108,0.088-0.166c0.023-0.054,0.041-0.107,0.061-0.162  c0.018-0.057,0.037-0.113,0.049-0.172c0.014-0.058,0.021-0.115,0.027-0.172c0.008-0.058,0.014-0.114,0.016-0.17  c0.002-0.061-0.002-0.117-0.008-0.176c-0.004-0.057-0.008-0.113-0.018-0.169c-0.01-0.058-0.023-0.112-0.039-0.169  c-0.014-0.055-0.029-0.11-0.049-0.164c-0.021-0.054-0.047-0.106-0.072-0.158s-0.051-0.104-0.08-0.153  c-0.031-0.051-0.068-0.098-0.105-0.146c-0.035-0.046-0.068-0.092-0.107-0.134c-0.043-0.046-0.091-0.088-0.139-0.13  c-0.03-0.025-0.055-0.057-0.087-0.081c-0.016-0.012-0.032-0.019-0.048-0.029c-0.018-0.012-0.03-0.026-0.047-0.038  c-3.493-2.319-7.553-3.633-11.742-3.802c-0.021-0.001-0.041,0.003-0.062,0.002c-0.034,0-0.067,0.004-0.102,0.005  c-0.714,0.024-1.305,0.463-1.564,1.089c-0.01,0.024-0.018,0.052-0.026,0.077c-0.029,0.082-0.057,0.163-0.074,0.25  c-0.003,0.013-0.009,0.024-0.012,0.037c-1.228,6.412-2.918,12.789-5.011,18.969c-2.128,1.632-4.332,3.172-6.618,4.608  c3.321-8.485,5.815-17.298,7.409-26.271c0.001-0.007,0.001-0.014,0.002-0.021c0-0.003,0.002-0.005,0.003-0.009l2.509-15.629  c0-0.001,0.001-0.001,0.001-0.003c0-0.003,0-0.007,0.001-0.01l0.005-0.028c0-0.005,0-0.009,0-0.013  c1.517-10.604,1.799-21.383,0.839-32.037c-0.115-1.272,0.827-2.402,2.101-2.518c0.613-0.065,1.219,0.133,1.694,0.529  s0.769,0.956,0.824,1.572c0.956,10.604,0.722,21.332-0.696,31.888c-0.002,0.012,0,0.022-0.001,0.034  c-0.002,0.01-0.005,0.019-0.006,0.029c-0.005,0.047,0.001,0.092,0,0.139c-0.002,0.065-0.005,0.132,0.001,0.197  c0.005,0.056,0.018,0.108,0.026,0.162c0.012,0.061,0.021,0.123,0.038,0.183c0.017,0.056,0.04,0.108,0.062,0.161  c0.021,0.054,0.041,0.108,0.067,0.16c0.028,0.053,0.062,0.101,0.095,0.151c0.03,0.047,0.058,0.094,0.092,0.137  c0.038,0.048,0.082,0.091,0.124,0.135c0.038,0.038,0.073,0.079,0.114,0.114c0.047,0.041,0.1,0.074,0.151,0.109  c0.044,0.031,0.085,0.063,0.132,0.09c0.057,0.032,0.117,0.056,0.177,0.083c0.049,0.02,0.095,0.043,0.146,0.06  c0.064,0.022,0.132,0.034,0.2,0.048c0.043,0.01,0.082,0.024,0.126,0.03c0.012,0.003,0.023,0.002,0.036,0.003  c0.01,0.001,0.019,0.005,0.028,0.006c8.363,0.817,16.355,4.421,22.501,10.145l0,0c10.295,9.681,18.463,21.75,23.621,34.905v0.002  C88.229,90.517,88.211,91.341,87.889,92.081z M40.343,63.916c2.337,0.279,4.599,0.987,6.682,2.08  c-2.983,3.733-6.245,7.2-9.776,10.37C38.461,72.264,39.494,68.101,40.343,63.916z" style=""></path></svg>