<svg xmlns="http://www.w3.org/2000/svg" xmlns:xlink="http://www.w3.org/1999/xlink" viewBox="0 0 50 50" version="1.1" style="max-width:100%" height="70" width="70" >
<g id="surface1" style="" fill="#B940AA">
<path style="" d="M 25 0 C 21.699219 0 19 2.699219 19 6 C 19 8.296875 20.3125 10.304688 22.21875 11.3125 C 19.339844 11.859375 16.457031 12.960938 15.9375 13.15625 C 15.925781 13.167969 15.917969 13.175781 15.90625 13.1875 C 14.742188 13.640625 13.933594 14.589844 13.4375 15.71875 C 13.433594 15.730469 13.410156 15.738281 13.40625 15.75 C 13.394531 15.761719 13.386719 15.769531 13.375 15.78125 C 13.277344 15.878906 13.203125 15.996094 13.15625 16.125 L 10.875 22.59375 C 10.539063 22.808594 7.273438 24.90625 5.9375 25.65625 C 5.027344 26.167969 4.367188 26.816406 4 27.59375 C 3.632813 28.371094 3.609375 29.308594 4.03125 30.0625 C 4.421875 30.761719 5.160156 31.253906 5.96875 31.375 C 6.007813 31.382813 6.054688 31.371094 6.09375 31.375 C 5.375 33.601563 6.242188 35.863281 8.09375 36.625 L 16.34375 40.1875 C 15.433594 41.230469 15.140625 42.761719 15.75 44.09375 C 16.328125 45.359375 17.46875 45.949219 18.40625 46.09375 C 18.875 46.164063 19.304688 46.136719 19.65625 46.09375 C 19.996094 46.050781 20.21875 46 20.5 45.875 L 20.53125 45.875 L 25 43.9375 L 29.46875 45.875 L 29.5 45.875 C 29.78125 46 30.003906 46.050781 30.34375 46.09375 C 30.695313 46.136719 31.125 46.164063 31.59375 46.09375 C 32.53125 45.949219 33.671875 45.359375 34.25 44.09375 C 34.859375 42.761719 34.566406 41.230469 33.65625 40.1875 L 41.90625 36.625 C 43.753906 35.859375 44.625 33.601563 43.90625 31.375 C 43.945313 31.371094 43.992188 31.382813 44.03125 31.375 C 44.84375 31.253906 45.578125 30.761719 45.96875 30.0625 C 46.390625 29.308594 46.367188 28.371094 46 27.59375 C 45.632813 26.816406 44.972656 26.167969 44.0625 25.65625 C 42.726563 24.90625 39.460938 22.808594 39.125 22.59375 L 36.84375 16.125 C 36.789063 15.984375 36.703125 15.855469 36.59375 15.75 C 36.582031 15.738281 36.574219 15.730469 36.5625 15.71875 C 36.0625 14.578125 35.207031 13.636719 34.03125 13.1875 C 34.027344 13.183594 34.035156 13.160156 34.03125 13.15625 C 34.027344 13.15625 34.003906 13.15625 34 13.15625 C 33.566406 12.988281 30.707031 11.867188 27.8125 11.3125 C 29.703125 10.300781 31 8.285156 31 6 C 31 2.699219 28.300781 0 25 0 Z M 25 2 C 27.222656 2 29 3.777344 29 6 C 29 8.222656 27.222656 10 25 10 C 22.777344 10 21 8.222656 21 6 C 21 3.777344 22.777344 2 25 2 Z M 25 13 C 27.746094 13 32.851563 14.855469 33.3125 15.03125 C 34.09375 15.320313 34.691406 15.945313 34.9375 16.75 C 34.945313 16.769531 34.957031 16.792969 34.96875 16.8125 C 34.992188 16.890625 35.023438 16.960938 35.0625 17.03125 L 37.375 23.625 C 37.453125 23.832031 37.59375 24.007813 37.78125 24.125 C 37.78125 24.125 41.519531 26.488281 43.09375 27.375 C 43.714844 27.722656 44.042969 28.160156 44.1875 28.46875 C 44.332031 28.777344 44.335938 28.9375 44.25 29.09375 C 44.132813 29.304688 44.042969 29.363281 43.75 29.40625 C 43.457031 29.449219 42.933594 29.394531 42.21875 29.09375 C 40.84375 28.519531 36.894531 26.429688 36.125 25.96875 C 35.410156 25.542969 35.554688 25.71875 35.1875 25.0625 C 35.046875 24.8125 33.964844 22.613281 33.28125 21.1875 C 33.082031 20.761719 32.609375 20.53125 32.152344 20.636719 C 31.691406 20.742188 31.367188 21.152344 31.375 21.625 L 31.375 28.625 C 31.378906 29.089844 31.703125 29.492188 32.15625 29.59375 L 35.21875 30.3125 L 25 35.5 L 14.84375 30.34375 L 17.84375 29.59375 C 18.296875 29.492188 18.621094 29.089844 18.625 28.625 L 18.625 21.59375 C 18.617188 21.128906 18.289063 20.730469 17.832031 20.632813 C 17.378906 20.535156 16.914063 20.765625 16.71875 21.1875 C 16.035156 22.613281 14.953125 24.8125 14.8125 25.0625 C 14.445313 25.71875 14.589844 25.539063 13.875 25.96875 C 13.109375 26.429688 9.15625 28.519531 7.78125 29.09375 C 7.066406 29.394531 6.542969 29.449219 6.25 29.40625 C 5.957031 29.363281 5.867188 29.304688 5.75 29.09375 C 5.664063 28.941406 5.667969 28.746094 5.8125 28.4375 C 5.957031 28.128906 6.285156 27.722656 6.90625 27.375 C 8.484375 26.488281 12.21875 24.125 12.21875 24.125 C 12.40625 24.007813 12.546875 23.832031 12.625 23.625 L 15 16.90625 C 15.011719 16.875 15.023438 16.84375 15.03125 16.8125 C 15.042969 16.792969 15.054688 16.769531 15.0625 16.75 C 15.304688 15.964844 15.875 15.332031 16.625 15.03125 C 16.628906 15.03125 16.652344 15.03125 16.65625 15.03125 C 17.328125 14.777344 22.320313 13 25 13 Z M 16.625 25.90625 L 16.625 27.84375 L 12.75 28.78125 C 13.519531 28.367188 14.5625 27.894531 14.90625 27.6875 C 15.632813 27.25 16.121094 26.820313 16.5625 26.03125 C 16.574219 26.011719 16.613281 25.925781 16.625 25.90625 Z M 33.375 25.90625 C 33.386719 25.925781 33.425781 26.011719 33.4375 26.03125 C 33.878906 26.820313 34.367188 27.25 35.09375 27.6875 C 35.402344 27.875 36.359375 28.324219 37.03125 28.6875 L 33.375 27.84375 Z M 10.03125 30.53125 C 10.535156 30.535156 11.042969 30.652344 11.40625 30.84375 L 11.4375 30.84375 L 22.78125 36.625 L 18.3125 38.875 L 8.875 34.78125 C 8.09375 34.460938 7.421875 33.203125 8.09375 31.65625 C 8.382813 30.988281 8.890625 30.6875 9.53125 30.5625 C 9.691406 30.53125 9.863281 30.53125 10.03125 30.53125 Z M 39.96875 30.53125 C 40.136719 30.53125 40.308594 30.53125 40.46875 30.5625 C 40.628906 30.59375 40.796875 30.632813 40.9375 30.6875 C 40.957031 30.699219 40.980469 30.707031 41 30.71875 C 41.394531 30.890625 41.699219 31.179688 41.90625 31.65625 L 41.90625 31.6875 C 42.550781 33.214844 41.898438 34.460938 41.125 34.78125 L 19.71875 44.0625 L 19.6875 44.0625 C 19.800781 44.011719 19.605469 44.101563 19.40625 44.125 C 19.207031 44.148438 18.964844 44.132813 18.71875 44.09375 C 18.230469 44.019531 17.84375 43.871094 17.5625 43.25 C 17.1875 42.425781 17.519531 41.5 18.34375 41.125 L 18.375 41.09375 L 18.40625 41.09375 L 38.5625 30.84375 L 38.59375 30.84375 C 38.957031 30.652344 39.464844 30.535156 39.96875 30.53125 Z M 31.59375 41.09375 L 31.625 41.09375 L 31.625 41.125 C 32.449219 41.5 32.8125 42.425781 32.4375 43.25 C 32.15625 43.871094 31.769531 44.019531 31.28125 44.09375 C 31.035156 44.132813 30.792969 44.148438 30.59375 44.125 C 30.394531 44.101563 30.199219 44.011719 30.3125 44.0625 L 30.28125 44.0625 L 27.5 42.875 Z M 11.875 48 C 11.324219 48.050781 10.917969 48.542969 10.96875 49.09375 C 11.019531 49.644531 11.511719 50.050781 12.0625 50 L 37.9375 50 C 38.296875 50.003906 38.632813 49.816406 38.816406 49.503906 C 38.996094 49.191406 38.996094 48.808594 38.816406 48.496094 C 38.632813 48.183594 38.296875 47.996094 37.9375 48 L 12.0625 48 C 12.03125 48 12 48 11.96875 48 C 11.9375 48 11.90625 48 11.875 48 Z " fill="#B940AA"></path>
</g>
</svg>