<svg xmlns="http://www.w3.org/2000/svg" xmlns:xlink="http://www.w3.org/1999/xlink" version="1.1" x="0px" y="0px" viewBox="0 0 100 100" enable-background="new 0 0 100 100" xml:space="preserve" style="max-width:100%" height="70" width="70" ><g style="" fill="#B940AA"><path fill="#B940AA" d="M1355.15,100.38c0-5.709-4.645-10.354-10.354-10.354s-10.354,4.645-10.354,10.354   c0,5.71,4.645,10.355,10.354,10.355S1355.15,106.09,1355.15,100.38z M1344.797,109.535c-5.049,0-9.154-4.106-9.154-9.155   c0-5.047,4.105-9.153,9.154-9.153c5.047,0,9.152,4.106,9.152,9.153C1353.949,105.429,1349.844,109.535,1344.797,109.535z" style=""></path><path fill="#B940AA" d="M1423.516,129.803c-0.004-0.005-0.01-0.013-0.014-0.019c-0.002-0.003-0.002-0.005-0.002-0.008   c-8.053-12.019-18.357-22.005-30.625-29.685c0,0,0-0.001-0.002-0.001c-6.977-5.015-15.174-7.768-23.738-8.016   c0.412-10.617-0.336-21.297-2.24-31.753c-0.227-1.24-0.922-2.318-1.959-3.035c-1.037-0.716-2.287-0.984-3.531-0.761   c-1.238,0.227-2.316,0.921-3.035,1.957c-0.717,1.037-0.986,2.291-0.762,3.531c1.891,10.366,2.57,20.956,2.021,31.478   c0,0.001,0,0.001,0,0.002l-1.086,15.755l0,0c-0.896,10.488-3.023,20.882-6.316,30.893c-0.812,2.472,0.539,5.144,3.01,5.957   c0.488,0.162,0.984,0.238,1.473,0.238c1.98,0,3.832-1.262,4.484-3.245c3.262-9.909,5.447-20.194,6.512-30.575   c4.695-0.11,9.307,1.366,13.029,4.238c8.537,7.494,15.441,16.445,20.523,26.602c0.65,1.297,1.766,2.263,3.141,2.721   c0.562,0.188,1.143,0.28,1.719,0.28c0.832,0,1.66-0.193,2.426-0.576c1.297-0.648,2.264-1.764,2.723-3.14   c0.457-1.376,0.352-2.849-0.297-4.145c-3.877-7.746-8.762-14.953-14.525-21.421c-0.131-0.149-0.137-0.368-0.012-0.521   c0.143-0.173,0.398-0.198,0.566-0.057c0.002,0.001,0.002,0.001,0.004,0.003c6.754,5.529,12.629,12.02,17.457,19.286   c1.043,1.571,2.77,2.424,4.529,2.424c1.031,0,2.074-0.293,2.994-0.906C1424.475,135.649,1425.156,132.272,1423.516,129.803z    M1421.32,136.306c-1.945,1.29-4.574,0.758-5.863-1.182c-4.893-7.367-10.846-13.945-17.695-19.551c0-0.001,0-0.002-0.002-0.003   c-0.68-0.56-1.693-0.461-2.256,0.224c-0.502,0.615-0.482,1.489,0.045,2.081c5.691,6.388,10.518,13.507,14.346,21.158   c0.506,1.011,0.588,2.157,0.232,3.229c-0.357,1.072-1.109,1.94-2.121,2.446c-1.01,0.505-2.156,0.589-3.229,0.23   c-1.07-0.356-1.941-1.108-2.445-2.119c-5.156-10.302-12.16-19.379-20.818-26.979c-0.004-0.005-0.012-0.006-0.018-0.011   c-0.004-0.003-0.006-0.009-0.012-0.013c-4.086-3.159-9.17-4.76-14.346-4.496c-0.041,0.002-0.076,0.019-0.115,0.029   c-0.014,0.003-0.027,0.006-0.041,0.01c-0.064,0.021-0.121,0.052-0.174,0.093c-0.008,0.006-0.018,0.013-0.025,0.021   c-0.043,0.036-0.078,0.078-0.109,0.126c-0.016,0.022-0.029,0.044-0.043,0.068c-0.018,0.04-0.029,0.079-0.037,0.123   c-0.006,0.024-0.021,0.044-0.023,0.07c-1.035,10.477-3.227,20.858-6.516,30.855c-0.607,1.845-2.602,2.848-4.443,2.243   c-1.844-0.607-2.85-2.601-2.246-4.443c3.326-10.103,5.469-20.592,6.373-31.175c0-0.001,0-0.004,0-0.005s0.002-0.004,0.002-0.006   l1.092-15.834c0.002-0.008-0.004-0.015-0.004-0.021c0.549-10.589-0.137-21.246-2.039-31.677c-0.168-0.925,0.033-1.858,0.568-2.632   s1.338-1.292,2.264-1.459c0.924-0.175,1.857,0.032,2.633,0.565c0.771,0.536,1.291,1.34,1.459,2.265   c1.926,10.562,2.668,21.355,2.205,32.08c0,0.003,0,0.006,0,0.009s0,0.005,0,0.007c0,0.032,0.012,0.059,0.016,0.09   c0.008,0.047,0.01,0.095,0.025,0.138c0.014,0.032,0.035,0.057,0.053,0.085c0.023,0.037,0.041,0.077,0.07,0.108   c0.025,0.027,0.059,0.044,0.09,0.065c0.033,0.023,0.061,0.051,0.096,0.067s0.074,0.019,0.111,0.028   c0.037,0.009,0.072,0.025,0.113,0.027c0.006,0,0.01,0,0.016,0c8.541,0.128,16.725,2.833,23.664,7.822   c0.006,0.004,0.012,0.002,0.016,0.005c0.008,0.005,0.012,0.012,0.018,0.017c12.137,7.592,22.328,17.465,30.293,29.351   c0.002,0.001,0.002,0.004,0.002,0.005C1423.791,132.386,1423.262,135.015,1421.32,136.306z" style=""></path></g><path fill="#B940AA" d="M78.18,24.205c0.193-2.553-0.619-5.027-2.287-6.97c-1.668-1.941-3.994-3.117-6.547-3.311  c-1.609-0.122-3.234,0.168-4.705,0.838C52.959,20.097,43.726,29.53,38.646,41.326c-1.014,2.353-1.051,4.957-0.104,7.336  c0.283,0.712,0.652,1.371,1.083,1.981c-1.746-1.059-3.785-1.68-5.971-1.68c-6.37,0-11.553,5.182-11.553,11.552  c0,6.372,5.183,11.555,11.553,11.555c6.371,0,11.555-5.183,11.555-11.555c0-2.634-0.896-5.057-2.386-7.002  c0.271,0.147,0.549,0.286,0.836,0.409c1.172,0.503,2.439,0.766,3.711,0.775c2.978,3.088,5.749,6.406,8.252,9.883  c-0.426,5.619-0.42,11.27,0.023,16.915c0,0.001,0.002,0.002,0.002,0.003c0.275,3.466,3.184,6.105,6.605,6.105  c0.172,0,0.348-0.007,0.521-0.021c1.766-0.139,3.371-0.956,4.521-2.303c1.111-1.304,1.654-2.951,1.564-4.653  c0-0.058,0.008-0.113,0.004-0.172c-0.162-2.051-0.242-4.103-0.271-6.152c0.918-0.524,1.691-1.272,2.221-2.218  c0.775-1.38,0.965-2.977,0.537-4.497c-0.133-0.472-0.324-0.924-0.566-1.349c-0.004-0.005-0.004-0.009-0.006-0.013  c-0.559-0.963-1.139-1.912-1.727-2.858c0.414-4.189,1.09-8.355,2.053-12.476C75.094,42.476,77.477,33.499,78.18,24.205z   M33.655,68.471c-4.386,0-7.953-3.568-7.953-7.955c0-4.385,3.567-7.952,7.953-7.952s7.954,3.567,7.954,7.952  C41.609,64.902,38.041,68.471,33.655,68.471z M58.174,47.978c-0.059,0.252-0.105,0.507-0.162,0.759  c-0.385-0.423-0.775-0.837-1.166-1.253c0.418-1.018,0.879-2.015,1.379-2.993C58.186,45.655,58.164,46.819,58.174,47.978z   M62.494,83.995c-1.664,0.121-3.125-1.116-3.258-2.778c0-0.001,0-0.002,0-0.002c-0.861-10.955-0.025-21.933,2.488-32.63  c0.002-0.012,0.002-0.022,0.004-0.033c0.014-0.059,0.018-0.119,0.025-0.18c0.006-0.062,0.016-0.125,0.016-0.188  c0-0.011,0.004-0.021,0.004-0.032c-0.041-3.513,0.158-7.073,0.592-10.584c0.002-0.019,0-0.036,0-0.056  c0.006-0.064,0.006-0.127,0.006-0.191c-0.002-0.057,0-0.113-0.006-0.167c-0.008-0.058-0.02-0.112-0.031-0.169  c-0.012-0.059-0.023-0.117-0.041-0.173c-0.016-0.054-0.039-0.104-0.061-0.157c-0.023-0.054-0.045-0.107-0.072-0.159  s-0.061-0.099-0.094-0.147s-0.064-0.097-0.1-0.141s-0.076-0.082-0.117-0.122c-0.043-0.046-0.088-0.091-0.139-0.13  c-0.014-0.012-0.025-0.027-0.041-0.039c-0.027-0.022-0.061-0.035-0.09-0.057c-0.055-0.036-0.109-0.07-0.166-0.101  c-0.051-0.026-0.104-0.049-0.156-0.07c-0.055-0.023-0.109-0.044-0.168-0.062c-0.061-0.018-0.121-0.029-0.184-0.041  c-0.035-0.008-0.07-0.021-0.107-0.025c-0.02-0.002-0.037,0.002-0.057-0.001c-0.062-0.006-0.125-0.005-0.188-0.005  c-0.057,0.002-0.113,0.002-0.168,0.008c-0.061,0.006-0.119,0.019-0.178,0.031c-0.053,0.012-0.107,0.021-0.162,0.037  c-0.059,0.02-0.117,0.045-0.174,0.069c-0.049,0.021-0.096,0.039-0.141,0.063c-0.059,0.03-0.111,0.068-0.166,0.105  c-0.043,0.028-0.084,0.055-0.123,0.087c-0.049,0.04-0.092,0.083-0.137,0.128c-0.039,0.041-0.08,0.082-0.117,0.126  c-0.014,0.017-0.029,0.028-0.041,0.045c-2.537,3.321-4.572,6.983-6.059,10.878c-0.006,0.01-0.008,0.02-0.012,0.028  c-0.012,0.026-0.023,0.051-0.033,0.076c-0.072,0.188-0.102,0.381-0.107,0.573c0,0.005-0.002,0.011-0.002,0.017  c-0.014,0.539,0.215,1.056,0.623,1.407c1.217,1.271,2.404,2.591,3.553,3.927c-0.375,2.045-0.691,4.099-0.949,6.158  c-2.111-2.687-4.367-5.273-6.754-7.707c-0.013-0.013-0.03-0.018-0.044-0.03c-0.146-0.139-0.312-0.252-0.497-0.337  c-0.035-0.017-0.068-0.031-0.104-0.046c-0.178-0.067-0.367-0.106-0.565-0.115c-0.037-0.002-0.073-0.003-0.111-0.002  c-0.04,0-0.078-0.006-0.118-0.002c-0.982,0.077-1.979-0.077-2.886-0.465c-1.469-0.633-2.604-1.799-3.194-3.285  c-0.591-1.484-0.568-3.111,0.064-4.58C46.678,31.776,55.268,23,66.137,18.038c0.918-0.419,1.934-0.596,2.938-0.523  c1.594,0.12,3.045,0.854,4.088,2.067c1.041,1.212,1.549,2.758,1.428,4.352c-0.676,8.926-2.973,17.545-6.828,25.62  c0,0.003-0.002,0.006-0.002,0.009c-0.025,0.053-0.041,0.11-0.061,0.165c-0.021,0.061-0.047,0.121-0.062,0.183  c0,0.003-0.002,0.005-0.002,0.007c-1.045,4.439-1.766,8.932-2.197,13.45c-0.031,0.137-0.043,0.278-0.041,0.421  c-0.514,5.625-0.566,11.289-0.121,16.949c0,0.002,0,0.002,0,0.003c0.064,0.805-0.191,1.588-0.717,2.203S63.301,83.933,62.494,83.995  z" style=""></path></svg>