<svg xmlns="http://www.w3.org/2000/svg" xmlns:xlink="http://www.w3.org/1999/xlink" version="1.1" x="0px" y="0px" viewBox="0 0 100 100" enable-background="new 0 0 100 100" xml:space="preserve" style="max-width:100%" height="70" width="70" ><g style="" fill="#B940AA"><path fill="#B940AA" d="M1355.15,100.38c0-5.709-4.645-10.354-10.354-10.354s-10.354,4.645-10.354,10.354   c0,5.71,4.645,10.355,10.354,10.355S1355.15,106.09,1355.15,100.38z M1344.797,109.535c-5.049,0-9.154-4.106-9.154-9.155   c0-5.047,4.105-9.153,9.154-9.153c5.047,0,9.152,4.106,9.152,9.153C1353.949,105.429,1349.844,109.535,1344.797,109.535z" style=""></path><path fill="#B940AA" d="M1423.516,129.803c-0.004-0.005-0.01-0.013-0.014-0.019c-0.002-0.003-0.002-0.005-0.002-0.008   c-8.053-12.019-18.357-22.005-30.625-29.685c0,0,0-0.001-0.002-0.001c-6.977-5.015-15.174-7.768-23.738-8.016   c0.412-10.617-0.336-21.297-2.24-31.753c-0.227-1.24-0.922-2.318-1.959-3.035c-1.037-0.716-2.287-0.984-3.531-0.761   c-1.238,0.227-2.316,0.921-3.035,1.957c-0.717,1.037-0.986,2.291-0.762,3.531c1.891,10.366,2.57,20.956,2.021,31.478   c0,0.001,0,0.001,0,0.002l-1.086,15.755l0,0c-0.896,10.488-3.023,20.882-6.316,30.893c-0.812,2.472,0.539,5.144,3.01,5.957   c0.488,0.162,0.984,0.238,1.473,0.238c1.98,0,3.832-1.262,4.484-3.245c3.262-9.909,5.447-20.194,6.512-30.575   c4.695-0.11,9.307,1.366,13.029,4.238c8.537,7.494,15.441,16.445,20.523,26.602c0.65,1.297,1.766,2.263,3.141,2.721   c0.562,0.188,1.143,0.28,1.719,0.28c0.832,0,1.66-0.193,2.426-0.576c1.297-0.648,2.264-1.764,2.723-3.14   c0.457-1.376,0.352-2.849-0.297-4.145c-3.877-7.746-8.762-14.953-14.525-21.421c-0.131-0.149-0.137-0.368-0.012-0.521   c0.143-0.173,0.398-0.198,0.566-0.057c0.002,0.001,0.002,0.001,0.004,0.003c6.754,5.529,12.629,12.02,17.457,19.286   c1.043,1.571,2.77,2.424,4.529,2.424c1.031,0,2.074-0.293,2.994-0.906C1424.475,135.649,1425.156,132.272,1423.516,129.803z    M1421.32,136.306c-1.945,1.29-4.574,0.758-5.863-1.182c-4.893-7.367-10.846-13.945-17.695-19.551c0-0.001,0-0.002-0.002-0.003   c-0.68-0.56-1.693-0.461-2.256,0.224c-0.502,0.615-0.482,1.489,0.045,2.081c5.691,6.388,10.518,13.507,14.346,21.158   c0.506,1.011,0.588,2.157,0.232,3.229c-0.357,1.072-1.109,1.94-2.121,2.446c-1.01,0.505-2.156,0.589-3.229,0.23   c-1.07-0.356-1.941-1.108-2.445-2.119c-5.156-10.302-12.16-19.379-20.818-26.979c-0.004-0.005-0.012-0.006-0.018-0.011   c-0.004-0.003-0.006-0.009-0.012-0.013c-4.086-3.159-9.17-4.76-14.346-4.496c-0.041,0.002-0.076,0.019-0.115,0.029   c-0.014,0.003-0.027,0.006-0.041,0.01c-0.064,0.021-0.121,0.052-0.174,0.093c-0.008,0.006-0.018,0.013-0.025,0.021   c-0.043,0.036-0.078,0.078-0.109,0.126c-0.016,0.022-0.029,0.044-0.043,0.068c-0.018,0.04-0.029,0.079-0.037,0.123   c-0.006,0.024-0.021,0.044-0.023,0.07c-1.035,10.477-3.227,20.858-6.516,30.855c-0.607,1.845-2.602,2.848-4.443,2.243   c-1.844-0.607-2.85-2.601-2.246-4.443c3.326-10.103,5.469-20.592,6.373-31.175c0-0.001,0-0.004,0-0.005s0.002-0.004,0.002-0.006   l1.092-15.834c0.002-0.008-0.004-0.015-0.004-0.021c0.549-10.589-0.137-21.246-2.039-31.677c-0.168-0.925,0.033-1.858,0.568-2.632   s1.338-1.292,2.264-1.459c0.924-0.175,1.857,0.032,2.633,0.565c0.771,0.536,1.291,1.34,1.459,2.265   c1.926,10.562,2.668,21.355,2.205,32.08c0,0.003,0,0.006,0,0.009s0,0.005,0,0.007c0,0.032,0.012,0.059,0.016,0.09   c0.008,0.047,0.01,0.095,0.025,0.138c0.014,0.032,0.035,0.057,0.053,0.085c0.023,0.037,0.041,0.077,0.07,0.108   c0.025,0.027,0.059,0.044,0.09,0.065c0.033,0.023,0.061,0.051,0.096,0.067s0.074,0.019,0.111,0.028   c0.037,0.009,0.072,0.025,0.113,0.027c0.006,0,0.01,0,0.016,0c8.541,0.128,16.725,2.833,23.664,7.822   c0.006,0.004,0.012,0.002,0.016,0.005c0.008,0.005,0.012,0.012,0.018,0.017c12.137,7.592,22.328,17.465,30.293,29.351   c0.002,0.001,0.002,0.004,0.002,0.005C1423.791,132.386,1423.262,135.015,1421.32,136.306z" style=""></path></g><path fill="#B940AA" d="M74.729,78.075c-0.002-0.002-0.006-0.004-0.01-0.005c-2.084-0.796-4.211-1.5-6.342-2.156  c0.004-0.015,0.012-0.026,0.018-0.041c0.51-1.498,0.402-3.104-0.299-4.522c-0.5-1.014-1.27-1.833-2.211-2.409  c-0.764-9.023-4.441-17.612-10.447-24.392c2.49-12.778-3.582-25.936-15.037-32.26c-0.001-0.001-0.002-0.001-0.003-0.002  c-1.385-0.764-2.985-0.943-4.502-0.505c-1.521,0.438-2.778,1.443-3.54,2.826c-1.555,2.817-0.557,6.354,2.209,7.965  c0.037,0.024,0.069,0.055,0.109,0.076c0.491,0.272,0.978,0.57,1.441,0.884c4.236,2.875,6.889,7.22,7.751,11.897  c-2.029-3.338-5.688-5.579-9.872-5.579c-6.371,0-11.555,5.183-11.555,11.553c0,6.371,5.184,11.554,11.555,11.554  c1.877,0,3.645-0.459,5.213-1.256c-0.279,0.4-0.553,0.806-0.833,1.206c-0.001,0-0.001,0.001-0.001,0.001  c-2.162,3.07-2.998,6.799-2.354,10.5c0.644,3.699,2.688,6.927,5.761,9.089c0.44,0.31,0.906,0.572,1.376,0.827  c-0.028,0.644-0.089,1.284-0.182,1.926c-2.901,0.819-5.787,1.751-8.585,2.818c-0.041,0.015-0.076,0.04-0.115,0.058  c-1.597,0.645-2.866,1.85-3.572,3.428c-0.723,1.615-0.773,3.417-0.142,5.069c0.971,2.552,3.461,4.267,6.193,4.267H52.18h20.178  c3.654,0,6.629-2.973,6.629-6.628C78.986,81.535,77.275,79.051,74.729,78.075z M52.18,77.634l-6.095-0.001  c0.001-0.002,0.004-0.005,0.006-0.008c0.011-0.018,0.024-0.032,0.035-0.051c0.097-0.16,0.162-0.336,0.205-0.521  c0.004-0.018,0.015-0.03,0.019-0.048c0.005-0.026,0.006-0.054,0.012-0.082c0.003-0.018,0.006-0.035,0.008-0.053  c0.136-0.697,0.24-1.4,0.312-2.106l8.47,2.869H52.18z M26.041,41.405c0-4.385,3.568-7.953,7.954-7.953  c4.387,0,7.955,3.568,7.955,7.953c0,4.386-3.568,7.954-7.955,7.954C29.609,49.359,26.041,45.791,26.041,41.405z M39.566,62.792  c-0.479-2.752,0.143-5.526,1.751-7.811c0.001,0,0.001-0.001,0.001-0.002c0.901-1.281,1.792-2.568,2.672-3.865  c0.003-0.003,0.004-0.007,0.006-0.01c6.803-10.04,4.176-23.74-5.861-30.551c-0.555-0.374-1.131-0.729-1.715-1.052  c-0.001,0-0.001-0.001-0.002-0.001L36.417,19.5c-1.119-0.617-1.526-2.031-0.908-3.152c0.298-0.541,0.79-0.934,1.385-1.105  c0.597-0.171,1.224-0.102,1.766,0.198c0.001,0,0.001,0,0.002,0.001c10.337,5.707,15.722,17.734,13.093,29.245  c-0.023,0.104-0.033,0.208-0.039,0.31c0,0.011-0.002,0.021-0.004,0.03c-0.008,0.225,0.031,0.441,0.102,0.645  c0.004,0.015,0.006,0.027,0.01,0.04c0.082,0.22,0.203,0.421,0.361,0.592c0.002,0.003,0.002,0.006,0.004,0.009  c5.426,5.859,8.889,13.297,9.922,21.182l-12.952-4.389c-0.94-0.318-1.963,0.185-2.282,1.127s0.186,1.964,1.127,2.283l15.529,5.262  c0.002,0,0.002,0,0.002,0c0.588,0.197,1.061,0.613,1.336,1.169c0.273,0.556,0.316,1.184,0.115,1.772  c-0.197,0.586-0.613,1.059-1.168,1.333c-0.557,0.275-1.186,0.316-1.77,0.117l-15.533-5.262c-0.001,0-0.001,0-0.001,0  c-0.944-0.319-1.841-0.774-2.663-1.353C41.566,67.946,40.044,65.545,39.566,62.792z M33.923,85.342  c-0.289-0.756-0.266-1.579,0.065-2.317c0.33-0.738,0.928-1.303,1.683-1.591c0.001,0,0.001,0,0.002,0  c2.079-0.794,4.214-1.494,6.362-2.148c-0.005,0.05-0.016,0.098-0.016,0.147c0,0.994,0.806,1.801,1.8,1.801h2.47  c-0.47,0.909-0.74,1.938-0.74,3.03c0,1.091,0.271,2.12,0.74,3.028h-9.536C35.505,87.292,34.368,86.509,33.923,85.342z   M72.357,87.292H52.18c-1.67,0-3.03-1.358-3.03-3.028s1.359-3.029,3.03-3.029l13.109-0.001c0.994,0,1.799-0.807,1.799-1.801  c0-0.053-0.01-0.102-0.014-0.153c2.139,0.651,4.271,1.356,6.361,2.154c0.002,0,0.002,0,0.002,0c1.164,0.444,1.947,1.582,1.947,2.83  C75.385,85.934,74.027,87.292,72.357,87.292z" style=""></path></svg>