<svg xmlns="http://www.w3.org/2000/svg" xmlns:xlink="http://www.w3.org/1999/xlink" version="1.1" x="0px" y="0px" viewBox="0 0 100 100" enable-background="new 0 0 100 100" xml:space="preserve" style="max-width:100%" height="70" width="70" ><g style="" fill="#B940AA"><path fill="#B940AA" d="M1355.15,100.38c0-5.709-4.645-10.354-10.354-10.354s-10.354,4.645-10.354,10.354   c0,5.71,4.645,10.355,10.354,10.355S1355.15,106.09,1355.15,100.38z M1344.797,109.535c-5.049,0-9.154-4.106-9.154-9.155   c0-5.047,4.105-9.153,9.154-9.153c5.047,0,9.152,4.106,9.152,9.153C1353.949,105.429,1349.844,109.535,1344.797,109.535z" style=""></path><path fill="#B940AA" d="M1423.516,129.803c-0.004-0.005-0.01-0.013-0.014-0.019c-0.002-0.003-0.002-0.005-0.002-0.008   c-8.053-12.019-18.357-22.005-30.625-29.685c0,0,0-0.001-0.002-0.001c-6.977-5.015-15.174-7.768-23.738-8.016   c0.412-10.617-0.336-21.297-2.24-31.753c-0.227-1.24-0.922-2.318-1.959-3.035c-1.037-0.716-2.287-0.984-3.531-0.761   c-1.238,0.227-2.316,0.921-3.035,1.957c-0.717,1.037-0.986,2.291-0.762,3.531c1.891,10.366,2.57,20.956,2.021,31.478   c0,0.001,0,0.001,0,0.002l-1.086,15.755l0,0c-0.896,10.488-3.023,20.882-6.316,30.893c-0.812,2.472,0.539,5.144,3.01,5.957   c0.488,0.162,0.984,0.238,1.473,0.238c1.98,0,3.832-1.262,4.484-3.245c3.262-9.909,5.447-20.194,6.512-30.575   c4.695-0.11,9.307,1.366,13.029,4.238c8.537,7.494,15.441,16.445,20.523,26.602c0.65,1.297,1.766,2.263,3.141,2.721   c0.562,0.188,1.143,0.28,1.719,0.28c0.832,0,1.66-0.193,2.426-0.576c1.297-0.648,2.264-1.764,2.723-3.14   c0.457-1.376,0.352-2.849-0.297-4.145c-3.877-7.746-8.762-14.953-14.525-21.421c-0.131-0.149-0.137-0.368-0.012-0.521   c0.143-0.173,0.398-0.198,0.566-0.057c0.002,0.001,0.002,0.001,0.004,0.003c6.754,5.529,12.629,12.02,17.457,19.286   c1.043,1.571,2.77,2.424,4.529,2.424c1.031,0,2.074-0.293,2.994-0.906C1424.475,135.649,1425.156,132.272,1423.516,129.803z    M1421.32,136.306c-1.945,1.29-4.574,0.758-5.863-1.182c-4.893-7.367-10.846-13.945-17.695-19.551c0-0.001,0-0.002-0.002-0.003   c-0.68-0.56-1.693-0.461-2.256,0.224c-0.502,0.615-0.482,1.489,0.045,2.081c5.691,6.388,10.518,13.507,14.346,21.158   c0.506,1.011,0.588,2.157,0.232,3.229c-0.357,1.072-1.109,1.94-2.121,2.446c-1.01,0.505-2.156,0.589-3.229,0.23   c-1.07-0.356-1.941-1.108-2.445-2.119c-5.156-10.302-12.16-19.379-20.818-26.979c-0.004-0.005-0.012-0.006-0.018-0.011   c-0.004-0.003-0.006-0.009-0.012-0.013c-4.086-3.159-9.17-4.76-14.346-4.496c-0.041,0.002-0.076,0.019-0.115,0.029   c-0.014,0.003-0.027,0.006-0.041,0.01c-0.064,0.021-0.121,0.052-0.174,0.093c-0.008,0.006-0.018,0.013-0.025,0.021   c-0.043,0.036-0.078,0.078-0.109,0.126c-0.016,0.022-0.029,0.044-0.043,0.068c-0.018,0.04-0.029,0.079-0.037,0.123   c-0.006,0.024-0.021,0.044-0.023,0.07c-1.035,10.477-3.227,20.858-6.516,30.855c-0.607,1.845-2.602,2.848-4.443,2.243   c-1.844-0.607-2.85-2.601-2.246-4.443c3.326-10.103,5.469-20.592,6.373-31.175c0-0.001,0-0.004,0-0.005s0.002-0.004,0.002-0.006   l1.092-15.834c0.002-0.008-0.004-0.015-0.004-0.021c0.549-10.589-0.137-21.246-2.039-31.677c-0.168-0.925,0.033-1.858,0.568-2.632   s1.338-1.292,2.264-1.459c0.924-0.175,1.857,0.032,2.633,0.565c0.771,0.536,1.291,1.34,1.459,2.265   c1.926,10.562,2.668,21.355,2.205,32.08c0,0.003,0,0.006,0,0.009s0,0.005,0,0.007c0,0.032,0.012,0.059,0.016,0.09   c0.008,0.047,0.01,0.095,0.025,0.138c0.014,0.032,0.035,0.057,0.053,0.085c0.023,0.037,0.041,0.077,0.07,0.108   c0.025,0.027,0.059,0.044,0.09,0.065c0.033,0.023,0.061,0.051,0.096,0.067s0.074,0.019,0.111,0.028   c0.037,0.009,0.072,0.025,0.113,0.027c0.006,0,0.01,0,0.016,0c8.541,0.128,16.725,2.833,23.664,7.822   c0.006,0.004,0.012,0.002,0.016,0.005c0.008,0.005,0.012,0.012,0.018,0.017c12.137,7.592,22.328,17.465,30.293,29.351   c0.002,0.001,0.002,0.004,0.002,0.005C1423.791,132.386,1423.262,135.015,1421.32,136.306z" style=""></path></g><path fill="#B940AA" d="M71.965,39.322c0,0-0.002,0-0.002-0.001l0,0c-3.732-3.822-7.604-7.598-11.504-11.223c0,0,0-0.001,0-0.002  c-1.102-1.02-2.531-1.581-4.029-1.581h-5.365c6.145-0.258,11.066-5.322,11.066-11.529c0-6.371-5.182-11.555-11.552-11.555  c-6.372,0-11.555,5.184-11.555,11.555c0,6.207,4.923,11.271,11.068,11.529h-5.366c-1.498,0-2.927,0.562-4.025,1.58  c-0.001,0.001-0.003,0.001-0.004,0.002c-3.896,3.619-7.767,7.396-11.506,11.224c-2.28,2.336-2.236,6.091,0.099,8.371  c1.112,1.085,2.596,1.684,4.134,1.684c0.164,0,0.329-0.007,0.494-0.021c0.006,0,0.012,0,0.018-0.001  c1.618-0.14,3.246-0.3,4.872-0.456v7.155l0,0c-0.001,1.438,0.017,2.882,0.023,4.322c-0.467-0.185-0.935-0.369-1.392-0.564l0,0  c0-0.001-0.001-0.001-0.001-0.001c-1.628-0.697-3.43-0.719-5.073-0.061s-2.933,1.918-3.63,3.545  c-0.697,1.628-0.719,3.43-0.061,5.073c0.647,1.619,1.882,2.888,3.474,3.592c0.024,0.012,0.045,0.027,0.07,0.038  c2.215,0.948,4.499,1.773,6.807,2.476c0.147,6.098,0.371,12.189,0.669,18.233c0.002,0.051,0.016,0.098,0.021,0.147  c0.122,1.711,0.873,3.284,2.147,4.439c1.229,1.113,2.796,1.716,4.442,1.716c0.11,0,0.223-0.002,0.334-0.008  c1.769-0.086,3.397-0.856,4.587-2.169c1.189-1.312,1.795-3.009,1.709-4.777c-0.246-4.977-0.439-9.99-0.582-15.006  c1.984,0.18,3.98,0.3,5.975,0.3c0.574,0,1.146-0.007,1.719-0.022c0.002,0,0.006,0,0.008,0c1.771-0.047,3.416-0.779,4.635-2.064  c1.219-1.284,1.865-2.968,1.818-4.729c-0.008-0.33-0.043-0.662-0.1-0.986c0-0.002,0-0.004,0-0.006c0-0.001,0-0.001,0-0.002  c-0.842-4.731-2.213-9.377-4.059-13.822v-6.819c1.625,0.156,3.252,0.316,4.869,0.456c0.006,0.001,0.01,0.001,0.014,0.001  c0.17,0.014,0.338,0.021,0.506,0.021c1.391,0,2.725-0.484,3.801-1.39c1.209-1.017,1.951-2.444,2.088-4.021  C73.775,42.25,73.17,40.557,71.965,39.322z M42.624,14.986c0-4.386,3.568-7.954,7.955-7.954c4.384,0,7.953,3.568,7.953,7.954  s-3.568,7.954-7.953,7.954C46.192,22.94,42.624,19.372,42.624,14.986z M54.037,36.133c-1.209-0.138-2.41,0.105-3.46,0.667  c-0.944-0.509-2.005-0.732-3.093-0.673c-0.119-0.011-0.241-0.009-0.364,0.006c-0.001,0-0.002,0-0.003,0h-0.001  c-3.582,0.41-7.199,0.785-10.758,1.116c2.244-2.208,4.507-4.393,6.789-6.513c0.001-0.001,0.001-0.001,0.002-0.002  c0.43-0.398,0.99-0.619,1.577-0.619H56.43c0.586,0,1.148,0.221,1.58,0.622c0.002,0,0.002,0,0.002,0.001  c2.283,2.122,4.545,4.305,6.785,6.511C61.236,36.917,57.619,36.543,54.037,36.133z M31.767,41.837  c0.901-0.924,1.831-1.83,2.747-2.746c0.001,0.047-0.005,0.092-0.001,0.139c0.087,0.933,0.871,1.633,1.79,1.633  c0.056,0,0.111-0.002,0.169-0.007c3.653-0.34,7.373-0.725,11.054-1.146h0.001c0.614-0.073,1.222,0.103,1.707,0.487  c0.484,0.386,0.791,0.937,0.861,1.552c0.145,1.271-0.771,2.423-2.041,2.568c-4.779,0.547-9.635,1.035-14.43,1.45  c-0.681,0.055-1.337-0.18-1.819-0.651C30.89,44.224,30.874,42.752,31.767,41.837z M33.635,68.688  C33.634,68.688,33.634,68.688,33.635,68.688c-0.744-0.318-1.318-0.906-1.619-1.658c-0.301-0.751-0.29-1.574,0.028-2.318  c0.318-0.743,0.907-1.318,1.658-1.619c0.752-0.302,1.574-0.291,2.318,0.027c0.001,0,0.001,0,0.001,0  c0.924,0.396,1.874,0.763,2.83,1.113c0.022,2.139,0.062,4.278,0.103,6.42C37.156,70.068,35.37,69.432,33.635,68.688z M58.75,56.049  c-0.002,0.12,0.01,0.241,0.035,0.361c0.023,0.121,0.061,0.237,0.107,0.348c1.816,4.306,3.152,8.816,3.971,13.409  c0.023,0.147,0.041,0.297,0.045,0.454c0.021,0.809-0.273,1.577-0.83,2.164s-1.309,0.922-2.117,0.943l0,0  c-2.561,0.065-5.141-0.034-7.691-0.28c-0.047-2.043-0.088-4.082-0.117-6.12c0.486,0.053,0.961,0.127,1.451,0.167  c0.047,0.004,0.096,0.006,0.143,0.007c0.002,0,0.004,0,0.006,0c0.168,0,0.34-0.023,0.51-0.073c0.037-0.012,0.07-0.03,0.105-0.044  c0.033-0.012,0.062-0.023,0.094-0.038c0.18-0.076,0.342-0.177,0.482-0.302c0.02-0.017,0.035-0.035,0.053-0.053  c0.143-0.138,0.264-0.294,0.354-0.469c0.01-0.019,0.016-0.038,0.025-0.057c0.088-0.188,0.148-0.39,0.168-0.601  c0-0.005,0.002-0.009,0.004-0.015c0.004-0.042-0.004-0.082-0.002-0.124c0-0.069,0.004-0.138-0.004-0.207s-0.023-0.137-0.037-0.203  c-0.01-0.041-0.012-0.082-0.023-0.124c-0.006-0.015-0.01-0.029-0.016-0.044c0-0.004-0.002-0.009-0.004-0.014  c-0.385-1.306-0.818-2.604-1.287-3.859c-0.012-0.025-0.025-0.047-0.037-0.072c-0.283-0.699-0.809-1.258-1.498-1.57  c-0.715-0.324-1.512-0.352-2.246-0.077c-1.149,0.431-1.915,1.545-1.906,2.773l0,0l0,0c0.007,0.979,0.026,1.965,0.038,2.947  c-0.001,0.062-0.003,0.122,0.003,0.183c0.038,3.205,0.098,6.418,0.18,9.635c0,0.054-0.001,0.108,0.004,0.161  c0.146,5.672,0.351,11.348,0.628,16.977c0.039,0.808-0.237,1.583-0.781,2.184c-0.543,0.599-1.287,0.95-2.096,0.99  c-0.803,0.045-1.583-0.237-2.183-0.78s-0.951-1.287-0.99-2.096l0,0l0,0c-0.596-12.08-0.893-24.352-0.882-36.475  c0-0.001,0-0.001,0-0.001v-0.001v-7.509c2.024-0.208,4.049-0.421,6.057-0.651c0.123-0.014,0.242-0.04,0.356-0.077  c0.629-0.112,1.223-0.307,1.762-0.597c0.65,0.349,1.357,0.588,2.107,0.674h0.002c2.01,0.23,4.033,0.443,6.059,0.652V56.049z   M69.223,45.232c-0.477,0.398-1.078,0.586-1.693,0.535c-4.758-0.412-9.576-0.896-14.322-1.438c0.395-0.915,0.586-1.931,0.465-2.989  c-0.066-0.574-0.236-1.115-0.457-1.633c0.137-0.009,0.275-0.014,0.414,0.003c3.68,0.42,7.398,0.806,11.055,1.146  c0.057,0.005,0.113,0.007,0.168,0.007c0.918,0,1.703-0.7,1.791-1.633c0.004-0.047-0.002-0.093-0.002-0.139  c0.916,0.916,1.846,1.822,2.746,2.745c0.473,0.484,0.711,1.148,0.652,1.821C69.986,44.274,69.695,44.834,69.223,45.232z" style=""></path></svg>