<svg xmlns="http://www.w3.org/2000/svg" xmlns:xlink="http://www.w3.org/1999/xlink" viewBox="0 0 50 50" version="1.1" style="max-width:100%" height="70" width="70" >
<g id="surface1" style="" fill="#B940AA">
<path style="" d="M 25 3 C 21.699219 3 19 5.699219 19 9 C 19 12.300781 21.699219 15 25 15 C 28.300781 15 31 12.300781 31 9 C 31 5.699219 28.300781 3 25 3 Z M 25 5 C 27.222656 5 29 6.777344 29 9 C 29 11.222656 27.222656 13 25 13 C 22.777344 13 21 11.222656 21 9 C 21 6.777344 22.777344 5 25 5 Z M 25 17 C 21.246094 17 16.359375 18.046875 16.359375 18.046875 C 16.195313 18.082031 16.042969 18.15625 15.917969 18.265625 L 15.898438 18.28125 C 14.84375 18.601563 14.011719 19.304688 13.527344 20.277344 L 13.523438 20.277344 L 13.5 20.296875 C 13.378906 20.398438 13.28125 20.53125 13.21875 20.679688 L 9.414063 29.859375 C 9.363281 29.984375 9.339844 30.121094 9.339844 30.253906 C 9.179688 30.648438 9 31.039063 9 31.5 C 9 33.421875 10.578125 35 12.5 35 C 12.816406 35 13.101563 34.949219 13.34375 34.890625 L 15.5625 34.34375 C 15.476563 34.441406 15.429688 34.511719 15.324219 34.621094 C 14.796875 35.152344 14.046875 35.785156 13.292969 36.378906 C 11.785156 37.566406 10.265625 38.597656 10.265625 38.597656 C 10.128906 38.6875 10.019531 38.808594 9.945313 38.953125 C 8.816406 39.765625 8 41.003906 8 42.5 C 8 44.972656 10.027344 47 12.5 47 L 37.5 47 C 39.972656 47 42 44.972656 42 42.5 C 42 40.992188 41.167969 39.746094 40.027344 38.933594 C 39.953125 38.796875 39.851563 38.679688 39.722656 38.589844 C 39.722656 38.589844 38.207031 37.519531 36.703125 36.300781 C 35.949219 35.695313 35.203125 35.046875 34.671875 34.511719 C 34.621094 34.457031 34.601563 34.425781 34.554688 34.375 L 36.65625 34.890625 C 36.898438 34.949219 37.183594 35 37.5 35 C 39.421875 35 41 33.421875 41 31.5 C 41 31.035156 40.816406 30.644531 40.65625 30.25 C 40.65625 30.117188 40.632813 29.984375 40.582031 29.859375 L 36.777344 20.679688 C 36.714844 20.53125 36.621094 20.398438 36.5 20.296875 L 36.472656 20.277344 C 35.984375 19.304688 35.15625 18.601563 34.097656 18.28125 L 34.078125 18.265625 C 33.953125 18.15625 33.800781 18.082031 33.640625 18.046875 C 33.640625 18.046875 28.75 17 25 17 Z M 25 19 C 28.304688 19 32.960938 19.953125 33.125 19.988281 C 33.183594 20.007813 33.242188 20.023438 33.300781 20.03125 C 34.046875 20.148438 34.648438 20.664063 34.882813 21.359375 C 34.9375 21.519531 35.027344 21.664063 35.152344 21.777344 L 35.023438 21.671875 L 38.535156 30.148438 L 38.804688 29.71875 C 38.609375 30.035156 38.601563 30.433594 38.789063 30.753906 C 38.925781 30.988281 39 31.234375 39 31.5 C 39 32.339844 38.339844 33 37.5 33 C 37.398438 33 37.28125 32.984375 37.136719 32.949219 C 37.132813 32.945313 37.132813 32.945313 37.132813 32.949219 L 33.269531 32 C 33.257813 31.996094 33.25 31.996094 33.238281 31.992188 L 25.238281 30.03125 C 25.207031 30.019531 25.171875 30.015625 25.140625 30.011719 C 25.109375 30.003906 25.074219 30 25.042969 30 C 25.007813 30 24.972656 30 24.941406 30 C 24.878906 30.003906 24.820313 30.015625 24.761719 30.03125 L 16.761719 31.992188 L 12.867188 32.949219 C 12.867188 32.945313 12.867188 32.945313 12.863281 32.949219 C 12.722656 32.984375 12.601563 33 12.5 33 C 11.660156 33 11 32.339844 11 31.5 C 11 31.234375 11.074219 30.988281 11.210938 30.75 C 11.394531 30.429688 11.390625 30.035156 11.191406 29.71875 L 11.460938 30.148438 L 14.972656 21.671875 L 14.8125 21.808594 C 14.953125 21.6875 15.054688 21.535156 15.113281 21.363281 C 15.351563 20.664063 15.953125 20.148438 16.699219 20.03125 C 16.761719 20.023438 16.824219 20.007813 16.886719 19.984375 C 16.886719 19.984375 16.890625 19.984375 16.890625 19.984375 C 17.085938 19.945313 21.703125 19 25 19 Z M 25 20 C 24.457031 20 24.105469 20.300781 23.882813 20.546875 C 23.660156 20.792969 23.511719 21.050781 23.371094 21.332031 C 23.089844 21.898438 22.863281 22.558594 22.667969 23.214844 C 22.363281 24.230469 22.25 24.828125 22.164063 25.222656 L 16.683594 27.050781 C 16.160156 27.226563 15.875 27.792969 16.050781 28.316406 C 16.226563 28.839844 16.792969 29.125 17.316406 28.949219 L 23.316406 26.949219 C 23.65625 26.835938 23.910156 26.546875 23.980469 26.195313 C 23.980469 26.195313 24.226563 24.980469 24.582031 23.785156 C 24.710938 23.355469 24.859375 23.003906 25 22.660156 C 25.140625 23.003906 25.285156 23.355469 25.417969 23.785156 C 25.773438 24.980469 26.019531 26.199219 26.019531 26.199219 C 26.089844 26.550781 26.34375 26.835938 26.683594 26.949219 L 32.683594 28.949219 C 33.207031 29.125 33.773438 28.839844 33.949219 28.316406 C 34.125 27.792969 33.839844 27.226563 33.316406 27.050781 L 27.835938 25.222656 C 27.75 24.828125 27.636719 24.230469 27.332031 23.214844 C 27.136719 22.558594 26.910156 21.898438 26.625 21.332031 C 26.484375 21.050781 26.335938 20.792969 26.113281 20.546875 C 25.894531 20.296875 25.539063 20 25 20 Z M 25 32.03125 L 32 33.75 L 32 33.796875 C 32 34.359375 32.222656 34.660156 32.441406 34.976563 C 32.664063 35.292969 32.9375 35.59375 33.25 35.910156 C 33.871094 36.546875 34.660156 37.222656 35.445313 37.859375 C 36.929688 39.058594 38.246094 39.984375 38.402344 40.09375 C 38.476563 40.179688 38.566406 40.253906 38.671875 40.308594 C 39.464844 40.734375 40 41.542969 40 42.5 C 40 43.890625 38.890625 45 37.5 45 L 20.5 45 C 19.660156 45 19 44.339844 19 43.5 C 19 42.757813 19.523438 42.160156 20.210938 42.027344 C 20.214844 42.027344 20.21875 42.027344 20.222656 42.027344 L 30.203125 39.980469 C 30.71875 39.886719 31.078125 39.402344 31.015625 38.878906 C 30.953125 38.355469 30.492188 37.96875 29.96875 38 C 29.910156 38 29.855469 38.007813 29.796875 38.019531 L 19.832031 40.0625 C 18.214844 40.375 17 41.804688 17 43.5 C 17 44.039063 17.136719 44.542969 17.355469 45 L 12.5 45 C 11.109375 45 10 43.890625 10 42.5 C 10 41.550781 10.527344 40.75 11.308594 40.320313 C 11.402344 40.269531 11.484375 40.207031 11.558594 40.128906 C 11.714844 40.023438 13.039063 39.128906 14.53125 37.953125 C 15.320313 37.328125 16.113281 36.664063 16.746094 36.027344 C 17.058594 35.710938 17.335938 35.402344 17.558594 35.078125 C 17.78125 34.753906 18 34.429688 18 33.878906 L 18 33.75 Z " fill="#B940AA"></path>
</g>
</svg>